Coordinates
version=1
nRows=37
nColumns=11
inDegrees=yes

Units are S.I. units (second, meters, Newtons, ...)
If the header above contains a line with 'inDegrees', this indicates whether rotational values are in degrees (yes) or radians (no).

endheader
time	pelvis_tilt	pelvis_tx	pelvis_ty	hip_flexion_l	hip_flexion_r	knee_angle_l	knee_angle_r	ankle_angle_l	ankle_angle_r	lumbar_extension
      3.81000000	    -92.44745090	     -0.49546263	      0.84079262	     97.89753623	     86.82540178	     11.35305743	     30.63146549	   -181.07642016	   -164.26986453	    100.97229703
      3.82000000	    -92.78075438	     -0.50518318	      0.83945531	     98.78368344	     85.78174036	     11.42195635	     29.88640147	   -181.48256403	   -164.94703800	    101.44457825
      3.83000000	    -93.21093349	     -0.51532777	      0.83775627	     99.76475548	     84.97050649	     11.54898663	     28.88175292	   -181.94724814	   -165.55349250	    101.97259082
      3.84000000	    -93.69963972	     -0.52564422	      0.83581059	    100.78977901	     84.31563148	     11.71342775	     27.68547581	   -182.51502877	   -165.95957283	    102.51844219
      3.85000000	    -94.10302317	     -0.53603494	      0.83352620	    101.75847192	     83.68073216	     11.88397205	     26.27494419	   -183.11638503	   -166.22816565	    102.97982832
      3.86000000	    -94.39657454	     -0.54648954	      0.83099183	    102.62775066	     83.05382712	     12.05741552	     24.66637575	   -183.76495758	   -166.63185050	    103.29869779
      3.87000000	    -94.62064202	     -0.55700354	      0.82825300	    103.42961483	     82.48258226	     12.25594271	     22.85733116	   -184.43116173	   -166.83595824	    103.52702873
      3.88000000	    -94.77321595	     -0.56772165	      0.82530177	    104.17978906	     81.95138350	     12.47259863	     20.92839640	   -185.08825525	   -166.98043749	    103.65122066
      3.89000000	    -94.79982661	     -0.57849213	      0.82214286	    104.79027978	     81.44798604	     12.73364671	     18.79169509	   -185.83029488	   -167.13645886	    103.61705333
      3.90000000	    -94.80584601	     -0.58951430	      0.81880597	    105.40934644	     81.00262218	     12.99147901	     16.62089883	   -186.56673359	   -167.36162990	    103.53295131
      3.91000000	    -94.72722130	     -0.60064490	      0.81537172	    105.98429047	     80.59933834	     13.20534849	     14.34477318	   -187.21850776	   -167.73954667	    103.34477129
      3.92000000	    -94.74882984	     -0.61205222	      0.81198494	    106.67472115	     80.35889114	     13.40408187	     12.17923139	   -187.87059493	   -167.97030580	    103.25512792
      3.93000000	    -94.71140889	     -0.62357606	      0.80859733	    107.32793530	     80.12792444	     13.58966571	     10.12029108	   -188.46564067	   -168.34077434	    103.08754975
      3.94000000	    -94.83877278	     -0.63547449	      0.80538352	    108.15584026	     80.11089758	     13.75756166	      8.31673228	   -188.79437246	   -168.52185250	    103.09558539
      3.95000000	    -95.00040536	     -0.64752076	      0.80231844	    109.00064197	     80.16304358	     13.96665552	      6.81359245	   -188.93370408	   -168.61233923	    103.13296682
      3.96000000	    -95.23092405	     -0.65984721	      0.79950332	    109.87434102	     80.30939345	     14.25522927	      5.70434780	   -188.96416206	   -168.60693151	    103.24659302
      3.97000000	    -95.47776231	     -0.67231840	      0.79698162	    110.73565926	     80.51021319	     14.59006152	      5.07613090	   -188.67379503	   -168.36525059	    103.37154505
      3.98000000	    -95.71568427	     -0.68502916	      0.79474526	    111.52712192	     80.76806932	     15.01719710	      4.78111796	   -188.16536978	   -168.13700402	    103.46679165
      3.99000000	    -95.98668953	     -0.69816863	      0.79280016	    112.33019517	     81.15843837	     15.51149514	      4.78904618	   -187.37996349	   -167.89558034	    103.56087697
      4.00000000	    -96.07859932	     -0.71135574	      0.79109717	    112.87669077	     81.51650471	     16.14626576	      4.98816514	   -186.38383500	   -167.69080029	    103.45412513
      4.01000000	    -95.97317246	     -0.72476176	      0.78958164	    113.18951917	     81.83157794	     16.86425929	      5.29087982	   -185.23850225	   -167.39658433	    103.09697095
      4.02000000	    -95.73217137	     -0.73852980	      0.78813889	    113.32970083	     82.21355226	     17.67924408	      5.60669791	   -183.90040209	   -167.19964322	    102.55613711
      4.03000000	    -95.82025653	     -0.75263106	      0.78712353	    113.73249243	     82.96061237	     18.53292652	      5.88473469	   -182.32708345	   -165.22478759	    102.38525063
      4.04000000	    -96.36587815	     -0.76691098	      0.78700413	    114.47696631	     83.96616990	     19.42218169	      6.62258471	   -180.14464561	   -165.30617955	    102.75180841
      4.05000000	    -96.99946643	     -0.78128301	      0.78761707	    115.17896566	     84.60282270	     20.39735536	      8.23414224	   -177.54372512	   -165.95011395	    103.22157591
      4.06000000	    -97.29761439	     -0.79546548	      0.78856705	    115.39516811	     84.99039569	     21.52003162	      9.64774776	   -174.56109015	   -165.78161782	    103.33866646
      4.07000000	    -97.51127103	     -0.80974071	      0.78976128	    115.34100262	     85.58736176	     22.96088977	     10.63061753	   -171.18293375	   -166.11863566	    103.33854290
      4.08000000	    -97.61284093	     -0.82392677	      0.79093738	    114.98459759	     86.27542108	     24.52447034	     11.26413149	   -167.63291851	   -166.70864432	    103.23741017
      4.09000000	    -97.81718627	     -0.83814618	      0.79207207	    114.58566957	     87.16869768	     26.18676692	     11.69031317	   -164.10288782	   -167.43777490	    103.26381047
      4.10000000	    -98.07754426	     -0.85217222	      0.79325210	    114.12720804	     88.19106427	     27.96929519	     11.99272122	   -161.09300538	   -168.20581872	    103.39464607
      4.11000000	    -98.42995119	     -0.86617277	      0.79453054	    113.65914970	     89.37230144	     29.91384647	     12.17211643	   -158.55920621	   -168.86497320	    103.63447726
      4.12000000	    -98.87145261	     -0.88005844	      0.79587859	    113.14140449	     90.69897745	     32.00394302	     12.21569362	   -156.18555321	   -169.51087996	    103.98183958
      4.13000000	    -99.23267605	     -0.89332217	      0.79721680	    112.36593012	     91.91222423	     34.27840856	     12.24087095	   -154.45867723	   -170.05768018	    104.30766135
      4.14000000	    -99.54951008	     -0.90617196	      0.79857319	    111.43025727	     93.12134857	     36.54005353	     12.15343423	   -154.14291226	   -170.48956198	    104.61910022
      4.15000000	    -99.88712138	     -0.91888435	      0.79996778	    110.46333567	     94.41124647	     38.58108587	     11.93780444	   -154.92719440	   -170.90713100	    104.94724717
      4.16000000	   -100.04465924	     -0.93108797	      0.80139835	    109.23607205	     95.58628841	     40.45356952	     11.56937977	   -156.57098101	   -171.16554451	    105.09259131
      4.17000000	    -99.93317346	     -0.94267038	      0.80298738	    107.75258617	     96.51171205	     41.94508192	     11.12507658	   -157.91391294	   -171.38413700	    105.00707911
